<?xml version="1.0" encoding="utf-8"?>
<!-- Generator: Adobe Illustrator 16.0.0, SVG Export Plug-In . SVG Version: 6.00 Build 0)  -->
<!DOCTYPE svg PUBLIC "-//W3C//DTD SVG 1.1//EN" "http://www.w3.org/Graphics/SVG/1.1/DTD/svg11.dtd">
<svg version="1.1" id="Layer_1" xmlns="http://www.w3.org/2000/svg" xmlns:xlink="http://www.w3.org/1999/xlink" x="0px" y="0px"
	 width="300px" height="305px" viewBox="0 0 300 305" enable-background="new 0 0 300 305" xml:space="preserve">
<g>
	<g>
		<path fill="#221F20" d="M77.323,215.386h-1.526v-5.683h-4.861v5.683h-1.518v-12.292h1.518v5.284h4.861v-5.284h1.526V215.386z"/>
		<path fill="#221F20" d="M87.321,215.386c-0.088-0.196-0.151-0.529-0.19-0.996c-0.52,0.777-1.184,1.166-1.991,1.166
			c-0.812,0-1.447-0.233-1.904-0.697c-0.455-0.465-0.684-1.119-0.684-1.963c0-0.93,0.31-1.666,0.93-2.213
			c0.618-0.546,1.468-0.824,2.546-0.836h1.078v-0.97c0-0.547-0.119-0.935-0.356-1.166s-0.6-0.346-1.087-0.346
			c-0.442,0-0.801,0.134-1.078,0.4c-0.276,0.268-0.414,0.607-0.414,1.018h-1.469c0-0.467,0.135-0.913,0.406-1.339
			c0.271-0.424,0.637-0.758,1.096-1c0.458-0.242,0.97-0.362,1.533-0.362c0.918,0,1.617,0.232,2.095,0.696
			c0.479,0.465,0.724,1.141,0.734,2.031v4.609c0.006,0.703,0.1,1.313,0.282,1.832v0.135H87.321z M85.364,214.195
			c0.359,0,0.701-0.102,1.027-0.305c0.327-0.202,0.564-0.454,0.714-0.759v-2.179h-0.829c-0.697,0.012-1.247,0.171-1.651,0.478
			c-0.403,0.306-0.605,0.735-0.605,1.287c0,0.519,0.103,0.895,0.308,1.127C84.532,214.079,84.877,214.195,85.364,214.195z"/>
		<path fill="#221F20" d="M97.502,207.651c-0.204-0.039-0.426-0.059-0.663-0.059c-0.753,0-1.278,0.42-1.576,1.259v6.534h-1.469
			v-9.136h1.428l0.024,0.93c0.393-0.731,0.948-1.098,1.667-1.098c0.232,0,0.426,0.039,0.581,0.118L97.502,207.651z"/>
		<path fill="#221F20" d="M104.617,213.115l1.701-6.865h1.492l-2.663,9.136h-1.095l-2.695-9.136h1.493L104.617,213.115z"/>
		<path fill="#221F20" d="M115.402,215.556c-1.117,0-1.975-0.34-2.572-1.019s-0.901-1.673-0.912-2.983v-1.107
			c0-1.361,0.291-2.43,0.874-3.203c0.584-0.773,1.398-1.161,2.443-1.161c1.051,0,1.836,0.341,2.355,1.022
			c0.521,0.68,0.785,1.741,0.797,3.182v0.979h-5.011v0.211c0,0.979,0.182,1.691,0.544,2.136c0.362,0.445,0.884,0.667,1.563,0.667
			c0.431,0,0.812-0.083,1.141-0.249s0.637-0.43,0.925-0.788l0.763,0.944C117.677,215.099,116.706,215.556,115.402,215.556z
			 M115.235,207.365c-0.608,0-1.059,0.212-1.352,0.638c-0.294,0.425-0.459,1.085-0.498,1.979h3.534v-0.203
			c-0.039-0.866-0.192-1.485-0.461-1.857S115.782,207.365,115.235,207.365z"/>
		<path fill="#221F20" d="M127.465,213.048c0-0.321-0.118-0.598-0.356-0.828c-0.238-0.231-0.696-0.501-1.377-0.81
			c-0.79-0.333-1.348-0.617-1.672-0.854c-0.323-0.236-0.564-0.505-0.726-0.807c-0.16-0.302-0.24-0.659-0.24-1.076
			c0-0.743,0.267-1.36,0.801-1.853c0.533-0.493,1.215-0.739,2.044-0.739c0.874,0,1.576,0.259,2.107,0.776
			c0.53,0.518,0.796,1.182,0.796,1.993h-1.46c0-0.411-0.135-0.762-0.406-1.052s-0.616-0.435-1.037-0.435
			c-0.431,0-0.77,0.114-1.016,0.34c-0.246,0.228-0.369,0.532-0.369,0.914c0,0.304,0.09,0.548,0.27,0.732
			c0.18,0.187,0.612,0.429,1.298,0.731c1.09,0.435,1.83,0.859,2.223,1.273s0.589,0.94,0.589,1.577c0,0.794-0.268,1.431-0.804,1.906
			c-0.537,0.478-1.256,0.716-2.157,0.716c-0.935,0-1.692-0.273-2.272-0.819c-0.581-0.547-0.871-1.238-0.871-2.077h1.476
			c0.018,0.507,0.17,0.903,0.457,1.19c0.288,0.286,0.691,0.43,1.211,0.43c0.487,0,0.857-0.111,1.112-0.333
			C127.338,213.724,127.465,213.425,127.465,213.048z"/>
		<path fill="#221F20" d="M135.722,204.038v2.212h1.353v1.208h-1.353v5.673c0,0.36,0.058,0.633,0.174,0.819
			c0.117,0.186,0.315,0.279,0.597,0.279c0.194,0,0.391-0.034,0.59-0.102l-0.017,1.26c-0.332,0.111-0.672,0.168-1.02,0.168
			c-0.581,0-1.024-0.212-1.328-0.634c-0.304-0.423-0.456-1.02-0.456-1.79v-5.674h-1.368v-1.208h1.368v-2.212H135.722z"/>
		<path fill="#221F20" d="M150.576,204.038v2.212h1.353v1.208h-1.353v5.673c0,0.36,0.058,0.633,0.174,0.819
			c0.116,0.186,0.315,0.279,0.598,0.279c0.193,0,0.39-0.034,0.589-0.102l-0.017,1.26c-0.332,0.111-0.672,0.168-1.021,0.168
			c-0.58,0-1.022-0.212-1.327-0.634c-0.304-0.423-0.456-1.02-0.456-1.79v-5.674h-1.369v-1.208h1.369v-2.212H150.576z"/>
		<path fill="#221F20" d="M158.111,207.188c0.559-0.738,1.271-1.106,2.141-1.106c1.586,0,2.391,1.078,2.413,3.234v6.069h-1.46
			v-6.002c0-0.715-0.118-1.224-0.353-1.525c-0.235-0.301-0.588-0.451-1.058-0.451c-0.365,0-0.692,0.124-0.983,0.371
			c-0.29,0.248-0.523,0.572-0.7,0.972v6.636h-1.469v-12.969h1.469V207.188z"/>
		<path fill="#221F20" d="M171.029,215.556c-1.117,0-1.974-0.34-2.57-1.019c-0.599-0.679-0.902-1.673-0.913-2.983v-1.107
			c0-1.361,0.292-2.43,0.875-3.203s1.397-1.161,2.442-1.161c1.051,0,1.837,0.341,2.356,1.022c0.519,0.68,0.784,1.741,0.796,3.182
			v0.979h-5.011v0.211c0,0.979,0.182,1.691,0.544,2.136c0.362,0.445,0.884,0.667,1.563,0.667c0.432,0,0.812-0.083,1.141-0.249
			s0.638-0.43,0.925-0.788l0.764,0.944C173.305,215.099,172.334,215.556,171.029,215.556z M170.863,207.365
			c-0.608,0-1.059,0.212-1.352,0.638c-0.293,0.425-0.459,1.085-0.498,1.979h3.533v-0.203c-0.038-0.866-0.191-1.485-0.46-1.857
			C171.819,207.55,171.411,207.365,170.863,207.365z"/>
		<path fill="#221F20" d="M186.24,215.386v-7.928h-1.169v-1.208h1.169v-1.054c0.017-0.93,0.248-1.655,0.692-2.175
			c0.445-0.521,1.075-0.781,1.888-0.781c0.292,0,0.588,0.048,0.888,0.143l-0.075,1.259c-0.21-0.051-0.434-0.076-0.671-0.076
			c-0.836,0-1.254,0.607-1.254,1.82v0.864h1.535v1.208h-1.535v7.928H186.24z"/>
		<path fill="#221F20" d="M195.625,203.827c0,0.254-0.069,0.465-0.208,0.634c-0.138,0.169-0.348,0.253-0.63,0.253
			c-0.276,0-0.484-0.084-0.622-0.253s-0.207-0.38-0.207-0.634c0-0.253,0.069-0.468,0.207-0.641c0.138-0.175,0.346-0.263,0.622-0.263
			s0.485,0.089,0.626,0.267C195.554,203.367,195.625,203.58,195.625,203.827z M195.509,215.386h-1.469v-9.136h1.469V215.386z"/>
		<path fill="#221F20" d="M202.173,206.25l0.041,0.988c0.57-0.771,1.297-1.156,2.182-1.156c1.588,0,2.392,1.078,2.414,3.234v6.069
			h-1.46v-6.002c0-0.715-0.117-1.224-0.353-1.525c-0.235-0.301-0.587-0.451-1.057-0.451c-0.366,0-0.693,0.124-0.983,0.371
			c-0.291,0.248-0.524,0.572-0.701,0.972v6.636h-1.468v-9.136H202.173z"/>
		<path fill="#221F20" d="M215.19,215.556c-1.117,0-1.974-0.34-2.571-1.019c-0.597-0.679-0.901-1.673-0.912-2.983v-1.107
			c0-1.361,0.291-2.43,0.875-3.203c0.583-0.773,1.397-1.161,2.442-1.161c1.051,0,1.837,0.341,2.356,1.022
			c0.52,0.68,0.785,1.741,0.796,3.182v0.979h-5.01v0.211c0,0.979,0.181,1.691,0.543,2.136c0.362,0.445,0.884,0.667,1.564,0.667
			c0.431,0,0.811-0.083,1.14-0.249s0.638-0.43,0.925-0.788l0.764,0.944C217.466,215.099,216.496,215.556,215.19,215.556z
			 M215.024,207.365c-0.608,0-1.059,0.212-1.352,0.638c-0.293,0.425-0.459,1.085-0.497,1.979h3.532v-0.203
			c-0.038-0.866-0.191-1.485-0.46-1.857C215.98,207.55,215.572,207.365,215.024,207.365z"/>
		<path fill="#221F20" d="M227.254,213.048c0-0.321-0.119-0.598-0.356-0.828c-0.237-0.231-0.696-0.501-1.377-0.81
			c-0.791-0.333-1.348-0.617-1.671-0.854c-0.324-0.236-0.566-0.505-0.727-0.807s-0.24-0.659-0.24-1.076
			c0-0.743,0.267-1.36,0.801-1.853c0.533-0.493,1.215-0.739,2.045-0.739c0.873,0,1.576,0.259,2.106,0.776
			c0.531,0.518,0.797,1.182,0.797,1.993h-1.46c0-0.411-0.137-0.762-0.407-1.052s-0.616-0.435-1.036-0.435
			c-0.432,0-0.771,0.114-1.016,0.34c-0.247,0.228-0.37,0.532-0.37,0.914c0,0.304,0.09,0.548,0.271,0.732
			c0.179,0.187,0.611,0.429,1.297,0.731c1.09,0.435,1.831,0.859,2.224,1.273s0.589,0.94,0.589,1.577
			c0,0.794-0.269,1.431-0.805,1.906c-0.536,0.478-1.255,0.716-2.156,0.716c-0.936,0-1.692-0.273-2.273-0.819
			c-0.58-0.547-0.871-1.238-0.871-2.077h1.477c0.017,0.507,0.169,0.903,0.457,1.19c0.287,0.286,0.691,0.43,1.211,0.43
			c0.485,0,0.856-0.111,1.11-0.333C227.127,213.724,227.254,213.425,227.254,213.048z"/>
		<path fill="#221F20" d="M235.511,204.038v2.212h1.353v1.208h-1.353v5.673c0,0.36,0.059,0.633,0.174,0.819
			c0.116,0.186,0.315,0.279,0.599,0.279c0.192,0,0.389-0.034,0.589-0.102l-0.018,1.26c-0.332,0.111-0.671,0.168-1.021,0.168
			c-0.58,0-1.022-0.212-1.326-0.634c-0.305-0.423-0.457-1.02-0.457-1.79v-5.674h-1.369v-1.208h1.369v-2.212H235.511z"/>
	</g>
	<g>
		<path d="M82.025,96.779c-2.245,0-4.411,0.299-6.449,0.853v-0.223h-7.46v51.216h7.46v-14.259c2.038,0.553,4.204,0.852,6.449,0.852
			c12.061,0,21.196-8.604,21.196-19.219S94.086,96.779,82.025,96.779 M82.025,128.233c-2.329,0-4.521-0.507-6.449-1.398v-21.672
			c1.928-0.892,4.12-1.398,6.449-1.398c7.677,0,13.9,5.478,13.9,12.234C95.926,122.755,89.702,128.233,82.025,128.233"/>
		<path fill="#211F1F" d="M140.545,96.667l0.016,34.965c0,1.467-0.295,2.836-0.885,4.102c-0.59,1.267-1.399,2.368-2.428,3.303
			c-1.029,0.936-2.224,1.678-3.585,2.223c-1.361,0.548-2.829,0.821-4.401,0.821c-1.543,0-2.988-0.273-4.334-0.821
			c-1.347-0.545-2.526-1.287-3.54-2.223c-1.014-0.935-1.808-2.036-2.382-3.303c-0.575-1.266-0.863-2.635-0.863-4.102l0.085-34.965
			h-7.344v34.856c0,2.419,0.473,4.673,1.421,6.759c0.946,2.088,2.255,3.901,3.926,5.441c1.669,1.542,3.613,2.764,5.831,3.664
			c2.219,0.901,4.599,1.352,7.141,1.352c2.591,0,5.01-0.45,7.253-1.352c2.242-0.9,4.211-2.122,5.906-3.664
			c1.694-1.54,3.029-3.354,4.001-5.441c0.973-2.086,1.458-4.34,1.458-6.759V96.667H140.545z"/>
		<path d="M199.4,148.736l-15.106-15.273c7.319-3.041,12.19-9.714,12.19-17.462c0-10.615-9.135-19.221-21.194-19.221
			c-2.246,0-4.411,0.3-6.451,0.853v-0.222h-7.459v51.215h7.459v-14.259c2.04,0.553,4.205,0.853,6.451,0.853
			c0.446,0,0.889-0.016,1.327-0.039l13.449,13.444L199.4,148.736z M168.839,105.163c1.928-0.891,4.121-1.396,6.451-1.396
			c7.676,0,13.898,5.478,13.898,12.234c0,6.755-6.223,12.232-13.898,12.232c-2.33,0-4.523-0.506-6.451-1.396V105.163z"/>
		<polygon fill="#211F1F" points="214.795,125.353 235.128,125.353 235.128,120.689 214.795,120.689 214.795,102.248 
			235.128,102.248 235.128,97.586 209.361,97.586 209.361,149.014 239.034,149.014 239.034,144.352 214.795,144.352 		"/>
		<polygon fill="none" stroke="#211F1F" stroke-width="2" stroke-miterlimit="10" points="214.795,125.353 235.128,125.353 
			235.128,120.689 214.795,120.689 214.795,102.248 235.128,102.248 235.128,97.586 209.361,97.586 209.361,149.014 
			239.034,149.014 239.034,144.352 214.795,144.352 		"/>
		<path d="M170.057,194.063v-14.085c0-5.143-2.01-6.533-4.975-6.533c-3.54,0-5.357,1.854-5.357,7.97v12.648h-6.361v-14.085
			c0-5.051-1.817-6.533-5.166-6.533c-3.684,0-5.167,1.9-5.167,7.97v12.648h-6.361v-25.668h5.836v2.41
			c1.866-2.178,3.779-3.012,6.889-3.012c3.636,0,5.979,1.204,7.797,3.984c2.152-2.78,4.783-3.984,8.514-3.984
			c6.983,0,10.715,3.753,10.715,11.443v14.826H170.057z"/>
		<path fill="#1D80BF" d="M195.791,194.859c-7.75,0-14.063-6.107-14.063-13.625c0-7.471,6.313-13.626,14.015-13.626
			c7.988,0,14.159,6.062,14.159,13.812C209.901,188.752,203.491,194.859,195.791,194.859 M195.791,173.34
			c-4.161,0-7.653,3.524-7.653,7.8c0,4.464,3.395,7.987,7.7,7.987c4.21,0,7.653-3.523,7.653-7.893
			C203.491,176.911,200.048,173.34,195.791,173.34"/>
		<path d="M231.066,194.063v-12.556c0-6.857-1.914-8.062-5.071-8.062c-2.009,0-3.684,0.834-4.687,2.363
			c-0.813,1.251-1.053,2.733-1.053,6.163v12.092h-6.362v-25.668h5.884v2.456c2.344-2.178,4.449-3.058,7.463-3.058
			c3.683,0,6.553,1.297,8.274,3.706c1.435,1.993,1.913,4.218,1.913,8.804v13.76H231.066z"/>
		<path d="M76.042,194.6c-6.932,0-12.317-4.01-12.958-10.694h7.626c0.32,2.96,2.081,4.393,5.332,4.393
			c3.147,0,5.334-1.767,5.334-4.297c0-1.432-0.64-2.77-1.813-3.581c-1.173-0.812-1.6-0.954-6.826-2.721
			c-5.279-1.767-8.211-5.157-8.211-9.597c0-5.586,5.118-10.026,11.464-10.026c6.347,0,11.305,3.819,11.679,10.026h-7.572
			c-0.213-2.387-1.706-3.725-4.159-3.725c-2.399,0-4.054,1.481-4.054,3.582c0,1.289,0.747,2.386,2.188,3.198
			c0.532,0.286,0.64,0.334,4.372,1.576c7.999,2.673,10.186,5.775,10.186,10.55C88.628,189.682,83.135,194.6,76.042,194.6"/>
		<rect x="124.664" y="158.697" width="6.28" height="35.281"/>
		<path d="M113.758,167.608v2.699c-2.248-1.688-5.032-2.699-8.058-2.699c-7.437,0-13.467,6.042-13.467,13.495
			c0,7.454,6.03,13.496,13.467,13.496c3.025,0,5.81-1.013,8.058-2.7v2.203h5.409v-26.494H113.758z M105.621,189.148
			c-4.364,0-7.903-3.545-7.903-7.919s3.539-7.919,7.903-7.919s7.902,3.545,7.902,7.919S109.985,189.148,105.621,189.148"/>
	</g>
	<g>
		<path fill="#1A80C0" d="M112.957,292.008C38.562,264.121,0.272,182.818,27.438,110.414c15.878-42.318,50.604-72.223,91.573-84.207
			c-47.444,8.461-88.957,40.318-106.765,87.78c-27.165,72.405,11.123,153.706,85.52,181.593c30.913,11.587,63.194,12.12,92.32,3.6
			C165.155,303.626,138.586,301.614,112.957,292.008"/>
		<path fill="#03628C" d="M290.037,128.647c6.113,76.818-50.425,143.983-126.284,150.016
			c-44.338,3.526-85.455-14.618-113.196-45.639c27.297,38.158,72.98,61.455,122.707,57.5
			c75.859-6.032,132.398-73.196,126.283-150.016c-2.541-31.92-19.926-69.068-39.65-91.122
			C274.242,69.438,287.931,102.186,290.037,128.647"/>
		<path fill="#58B3E4" d="M40.109,56.182c57.443-54.927,146.894-54.65,199.793,0.62c30.919,32.305,42.498,76.243,35.321,118.15
			c13.156-46.22,2.796-97.087-31.882-133.317c-52.898-55.271-142.35-55.548-199.793-0.619C19.68,63.84,5.102,92.605,0,122.398
			C6.913,98.109,20.321,75.104,40.109,56.182"/>
	</g>
</g>
</svg>
